<svg width="23" height="31" viewBox="0 0 23 31" fill="none" xmlns="http://www.w3.org/2000/svg">
<path fill-rule="evenodd" clip-rule="evenodd" d="M11.495 30.29C10.7954 30.2834 10.2336 29.7109 10.2403 29.0115L10.4645 5.2004L2.70235 12.8177C2.20305 13.3076 1.40107 13.3001 0.911093 12.8008C0.421113 12.3015 0.428666 11.4995 0.927963 11.0095L10.8727 1.2504C11.1124 1.01512 11.4359 0.884669 11.7719 0.887781C12.1077 0.891069 12.4286 1.0275 12.6639 1.26727L22.4231 11.212C22.9131 11.7113 22.9054 12.5133 22.4062 13.0033C21.907 13.4932 21.1049 13.4857 20.6149 12.9864L12.9977 5.22427L12.7735 29.0354C12.7668 29.7348 12.1944 30.2965 11.495 30.29Z" fill="white"/>
</svg>
