<svg width="15" height="15" viewBox="0 0 15 15" fill="none" xmlns="http://www.w3.org/2000/svg">
<path fill-rule="evenodd" clip-rule="evenodd" d="M0.320562 14.6796C-0.0179056 14.341 -0.0179056 13.7923 0.320562 13.4539L11.8411 1.93332H4.40005C3.92141 1.93332 3.53338 1.54529 3.53338 1.06665C3.53338 0.588006 3.92141 0.199982 4.40005 0.199982H13.9334C14.1632 0.199982 14.3837 0.291294 14.5463 0.453828C14.7087 0.616363 14.8 0.836791 14.8 1.06665V10.6C14.8 11.0786 14.412 11.4667 13.9334 11.4667C13.4548 11.4667 13.0667 11.0786 13.0667 10.6V3.15897L1.5462 14.6796C1.20775 15.0179 0.659013 15.0179 0.320562 14.6796Z" fill="#F9865B"/>
</svg>
