<svg width="23" height="31" viewBox="0 0 23 31" fill="none" xmlns="http://www.w3.org/2000/svg">
<g clip-path="url(#clip0_32_16)">
<path fill-rule="evenodd" clip-rule="evenodd" d="M11.495 0.709999C10.7954 0.716599 10.2336 1.2891 10.2403 1.9885L10.4645 25.7996L2.70238 18.1823C2.20308 17.6924 1.4011 17.6999 0.911123 18.1992C0.421143 18.6985 0.428696 19.5005 0.927993 19.9905L10.8727 29.7496C11.1124 29.9849 11.4359 30.1153 11.7719 30.1122C12.1077 30.1089 12.4286 29.9725 12.6639 29.7327L22.4231 19.788C22.9131 19.2887 22.9054 18.4867 22.4062 17.9967C21.907 17.5068 21.1049 17.5143 20.6149 18.0136L12.9977 25.7757L12.7735 1.9646C12.7668 1.2652 12.1944 0.703499 11.495 0.709999Z" fill="black"/>
</g>
<defs>
<clipPath id="clip0_32_16">
<rect width="23" height="31" fill="white" transform="matrix(1 0 0 -1 0 31)"/>
</clipPath>
</defs>
</svg>
