<svg width="15" height="18" viewBox="0 0 15 18" fill="none" xmlns="http://www.w3.org/2000/svg">
<path fill-rule="evenodd" clip-rule="evenodd" d="M0.757378 0.261921C1.15261 -0.00816168 1.69194 0.093248 1.96191 0.488411L11.1552 13.9394L12.5302 6.62657C12.6187 6.15617 13.0717 5.84653 13.5421 5.93498C14.0125 6.02343 14.3222 6.47648 14.2337 6.94688L12.472 16.316C12.4295 16.5419 12.2991 16.7417 12.1093 16.8715C11.9195 17.001 11.686 17.0501 11.4601 17.0076L2.09096 15.2459C1.62056 15.1575 1.31094 14.7043 1.39937 14.234C1.48781 13.7637 1.94087 13.454 2.41127 13.5424L9.72414 14.9175L0.530888 1.46645C0.260912 1.07131 0.362315 0.532018 0.757378 0.261921Z" fill="white"/>
</svg>
